<?xml version="1.0" encoding="utf-8"?>
<!-- Generator: Adobe Illustrator 25.0.1, SVG Export Plug-In . SVG Version: 6.00 Build 0)  -->
<svg version="1.1" id="Layer_1" xmlns="http://www.w3.org/2000/svg" xmlns:xlink="http://www.w3.org/1999/xlink" x="0px" y="0px"
	 viewBox="0 0 160 78" style="enable-background:new 0 0 160 78;" xml:space="preserve">
<style type="text/css">
	.st0{fill:#B0B1B2;}
	.st1{fill:#2F4468;}
</style>
<g>
	<path class="st0" d="M158.7,56.2c-5.5-22.2-15-43-18.9-50.9c-1.3-2.6-4-4.3-6.9-4.3H27.1c-2.9,0-5.7,1.7-6.9,4.3
		C16.4,13.2,6.9,34,1.3,56.2c-1.5,6.1,2.1,12.2,8.2,14C20.6,73.3,41.7,77,80,77s59.4-3.7,70.4-6.8C156.6,68.4,160.2,62.3,158.7,56.2
		z M149.3,65c-10.8,3-31.5,6.7-69.3,6.7S21.4,68,10.7,65c-4-1.1-6.4-3.8-5.4-7.8C10.7,35.3,20.1,13.8,23.8,6
		c0.6-1.3,1.9-2.1,3.3-2.1l32.9,0c0.9,0,1.8,0.5,2.3,1.3l1.1,1.9C64.1,8.3,65.2,9,66.4,9h27.3c1.2,0,2.3-0.7,2.9-1.8l1.1-1.9
		c0.5-0.8,1.3-1.3,2.3-1.3l32.9,0c1.4,0,2.7,0.8,3.3,2.1c3.8,7.8,13.1,29.3,18.6,51.2C155.7,61.2,153.4,63.9,149.3,65z"/>
	<path class="st1" d="M80,31c-16,0-29,13-29,29c0,1.4,0.1,2.9,0.3,4.3c0.2,1.1,1.2,1.8,2.3,1.7c1.1-0.2,1.8-1.2,1.7-2.3
		c-0.1-0.9-0.2-1.8-0.2-2.7h3c0.6,0,1-0.4,1-1s-0.4-1-1-1h-3c0.2-6,2.6-11.5,6.4-15.7l2.3,2.1c0.2,0.2,0.4,0.3,0.7,0.3
		c0.3,0,0.5-0.1,0.7-0.3c0.4-0.4,0.3-1-0.1-1.4l-2.2-2.1C67,37.8,72.7,35.3,79,35v3c0,0.6,0.4,1,1,1s1-0.4,1-1v-3
		c6.3,0.2,12,2.8,16.2,6.9L95,44c-0.4,0.4-0.4,1-0.1,1.4c0.2,0.2,0.5,0.3,0.7,0.3c0.2,0,0.5-0.1,0.7-0.3l2.3-2.1
		c3.8,4.2,6.1,9.7,6.3,15.7h-3c-0.6,0-1,0.4-1,1s0.4,1,1,1h3c0,0.9-0.1,1.8-0.2,2.7c-0.2,1.1,0.6,2.1,1.7,2.3c0.1,0,0.2,0,0.3,0
		c1,0,1.8-0.7,2-1.7c0.2-1.4,0.3-2.9,0.3-4.3C109,44,96,31,80,31z M76.5,59.7c-0.7,2,0.4,4.2,2.4,4.9c1.3,0.4,2.7,0.2,3.7-0.7
		l12.6-10.4l-15.9,3.6C78,57.4,77,58.4,76.5,59.7z"/>
</g>
</svg>
