<svg xmlns="http://www.w3.org/2000/svg" width="1392.824" height="246.781"><path fill="none" d="M0-10h266.781v266.781H0z"/><circle cx="143.831" cy="123.225" r="22.306" fill="#05a5cd"/><path stroke-miterlimit="10" d="M143.831 77.872c29.949 0 57.77 4.298 78.748 11.52 25.275 8.7 40.815 21.89 40.815 33.833 0 12.446-16.47 26.457-43.611 35.45-20.52 6.799-47.523 10.347-75.952 10.347-29.148 0-56.749-3.33-77.495-10.422-26.254-8.974-42.068-23.167-42.068-35.375 0-11.846 14.838-24.933 39.757-33.622 21.056-7.34 49.565-11.73 79.806-11.73z" fill="none" stroke="#05a5d1" stroke-width="10.671"/><path stroke-miterlimit="10" d="M104.35 100.68c14.962-25.944 32.584-47.899 49.32-62.463 20.164-17.548 39.353-24.42 49.698-18.455 10.782 6.218 14.692 27.485 8.923 55.49-4.362 21.172-14.777 46.335-28.98 70.963-14.56 25.25-31.235 47.496-47.743 61.925-20.89 18.26-41.084 24.868-51.66 18.77-10.262-5.918-14.186-25.31-9.263-51.237 4.16-21.907 14.598-48.796 29.706-74.994z" fill="none" stroke="#05a5cd" stroke-width="10.671"/><path stroke-miterlimit="10" d="M104.388 146.281c-15.004-25.919-25.224-52.15-29.484-73.923-5.133-26.233-1.504-46.29 8.832-52.274 10.77-6.235 31.149.998 52.53 19.982 16.164 14.353 32.763 35.943 47.007 60.547 14.604 25.226 25.55 50.782 29.807 72.29 5.387 27.217 1.026 48.013-9.54 54.13-10.251 5.935-29.01-.349-49.015-17.563-16.902-14.544-34.985-37.017-50.137-63.189z" fill="none" stroke="#05a5d1" stroke-width="10.671"/><text style="line-height:125%;-inkscape-font-specification:'sans-serif, Normal';text-align:start" x="317.213" y="186.713" font-weight="400" font-size="188.67" font-family="sans-serif" letter-spacing="0" word-spacing="0"><tspan x="317.213" y="186.713" style="line-height:125%;-inkscape-font-specification:'Helvetica Neue, Normal';text-align:start" font-size="188.677" font-family="Helvetica Neue" fill="#05a5d1">React Native</tspan></text></svg>