<?xml version="1.0" encoding="utf-8"?>
<!-- Generator: Adobe Illustrator 19.1.0, SVG Export Plug-In . SVG Version: 6.00 Build 0)  -->
<svg version="1.1" id="Layer_1" xmlns="http://www.w3.org/2000/svg" xmlns:xlink="http://www.w3.org/1999/xlink" x="0px" y="0px"
	 width="428px" height="217px" viewBox="0 0 428 217" enable-background="new 0 0 428 217" xml:space="preserve">
<g>
	<ellipse fill="#FFFFFF" cx="139.6" cy="124.3" rx="19.2" ry="16.2"/>
	<path fill="#FFFFFF" d="M412.2,68.7c0,29.8-41.4,54-92.4,54c-16.9,0-32.7-2.6-46.4-7.3c-5.5-1.9-52.4,5.8-52.4,5.8
		s21.4-19.6,23-21.6c-10.5-8.8-16.7-19.4-16.7-30.9c0-29.8,41.4-54,92.4-54S412.2,38.9,412.2,68.7z"/>
	<g>
		<path fill="#136A7D" d="M212.2,126l28.4-26.1c-10.6-9.3-16.2-20.2-16.2-31.6c0-15.3,10.1-29.6,28.4-40.2
			c17.8-10.3,41.4-16,66.5-16s48.7,5.7,66.5,16c18.3,10.6,28.4,24.9,28.4,40.2s-10.1,29.6-28.4,40.2c-17.8,10.3-41.4,16-66.5,16
			c-17,0-33.7-2.7-48.2-7.7L212.2,126z M271.7,111.1l0.7,0.2c14.1,5,30.3,7.6,47,7.6c24.1,0,46.7-5.4,63.7-15.3
			c16.5-9.6,25.6-22.1,25.6-35.4s-9.1-25.8-25.6-35.4c-17-9.9-39.6-15.3-63.7-15.3s-46.7,5.4-63.7,15.3
			c-16.5,9.6-25.6,22.1-25.6,35.4c0,10.5,5.7,20.6,16.6,29.3l2.6,2.1l-19.5,17.9L271.7,111.1z"/>
		<path fill-rule="evenodd" clip-rule="evenodd" fill="#136A7D" d="M212.3,56.8C205,43.5,192.1,39.6,183,39.4
			c-11.2-0.2-20.4,6.1-18.7,10.3c0.4,0.9,2.5,5.6,3.8,7.5c1.9,2.8,5.2,0.6,6.4,0c3.5-1.9,7.2-2.5,11.5-2c4,0.5,9.4,3,13,10.1
			c8.5,16.7-17.7,51-50.5,27.2c-32.8-23.7-64.7-15.9-79.2-11.1c-14.4,4.8-21.1,9.6-15.4,20.7c7.8,15.1,5.2,10.5,12.7,23
			c11.9,19.9,38.1-9.2,38.1-9.2c-19.5,29.3-36.2,22.2-42.6,12c-5.8-9.2-10.3-19.9-10.3-19.9c-49.3,17.8-36,95.7-36,95.7l24.5,0.1
			c6.2-28.9,28.6-27.7,32.4,0.1l18.7,0.1c16.5-56.4,58.4,0.2,58.4,0.2l24.4,0.1c-6.8-38.5,13.7-50.6,26.6-73.1
			C213.9,108.6,226.2,81,212.3,56.8z M136.4,132.2c-12-4-7.7-16.2-7.7-16.2s3,1,8,2.6c-0.7,1-1,2.2-0.8,3.5c0.3,3,3.1,5.2,6.2,4.9
			c2.7-0.3,4.8-2.4,5.1-4.9c2,0.7,4.1,1.4,6.3,2.1C152.6,127.9,145.5,135.2,136.4,132.2z"/>
		<g>
			<path fill="#03303A" d="M252.9,83.1h-4.6l1-6.9h-3.7l-1,6.9h-4.5l0.9-6.9h-3.5v-4.5h4.1l0.5-3.5h-3.7v-4.6h4.3l0.9-6.5h4.6
				l-1,6.5h3.7l0.9-6.5h4.6l-0.9,6.5h3.4v4.6h-4l-0.5,3.5h3.6v4.5h-4.3L252.9,83.1z M249.9,71.6l0.5-3.5h-3.7l-0.5,3.5H249.9z"/>
			<path fill="#03303A" d="M265.9,75.2c0.7,0.7,1.2,1.3,2.5,2c1.7,0.9,3.5,1.3,5,1.3c2.6,0,4.8-1.2,4.8-3c0-2.1-2.6-2.4-4.5-2.7
				c-1.4-0.2-2.9-0.4-4.3-0.7c-1.6-0.3-7-1.5-7-7.1c0-6.7,6-8.7,10.5-8.7c6,0,9.3,2.9,11.5,5l-4.8,3.4c-0.8-0.8-1.6-1.5-2.6-2.1
				c-0.9-0.5-2.6-1.1-4.3-1.1c-2.6,0-3.9,1.5-3.9,2.7c0,2,2.2,2.3,3.3,2.4c2.8,0.3,6.5,1,8,1.6c3,1.1,4.5,3.4,4.5,6.4
				c0,1.9-0.7,4-2.1,5.5c-2.4,2.7-6.1,3.5-9.8,3.5c-7.4,0-10.3-3.4-11.9-5.3L265.9,75.2z"/>
			<path fill="#03303A" d="M316.6,81.6c-2.2,2.1-6.7,6.1-13.6,6.1c-5.6,0-14.4-2.9-14.4-13.4c0-9.4,7.3-17.5,17-17.5
				c6.9,0,11,4.6,11,10.8c0,6.7-4.1,13.1-8.8,13.1c-2.8,0-3.2-2-3.3-2.5c-1.1,1.3-2.6,2.5-4.7,2.5c-2.8,0-5.1-2-5.1-6.3
				c0-5.1,3.3-10.6,8-10.6c2.5,0,3.4,1.5,3.9,2.2l0.3-1.4h3.4l-1.3,5.8c-0.3,1.4-1,4.8-1,6c0,0.4,0,1.1,0.7,1.1
				c1.6,0,4.7-4.5,4.7-9.8c0-6-4.4-8-8.2-8c-7.1,0-13.6,6.6-13.6,14.6c0,8.2,6.7,10.4,11.2,10.4c3.3,0,6.7-1.1,9.8-3.4
				c0.9-0.7,1.7-1.4,2.2-2L316.6,81.6z M302.9,67.1c-2.7,0-4.4,4.1-4.4,7.1c0,3,1.9,3.2,2.3,3.2c0.9,0,2-0.7,2.8-1.8
				c1.2-1.6,1.7-4,1.7-5.4C305.4,68.2,304.3,67.1,302.9,67.1z"/>
			<path fill="#03303A" d="M340.7,83.1c-2.5,0-3.3-0.4-4.6-1.7c-1.2,0.7-3.4,2-7,2c-6,0-8.9-4-8.9-8.1c0-1,0.2-2,0.6-3
				c1.3-3.3,4-4.5,5.8-5.3c-1-1.6-1.7-2.9-1.7-4.5c0-3.2,2.3-5.7,6.7-5.7c4.1,0,6.4,2.7,6.4,5.6c0,3.2-2.6,5.1-4.9,6.1
				c1.7,2.6,2.1,3.2,3.5,5.2c0.7-1.6,0.9-2,1.3-3.9l4.6,1.7c-0.9,2.8-1.2,3.5-2.8,6.2c0.5,0.6,1.1,1.2,2.8,1.2c0.4,0,0.7,0,1.1,0
				v4.1H340.7z M329,70.8c-1.1,0.7-3,2-3,4.2c0,1.4,1.1,3.9,3.9,3.9c1.4,0,2.6-0.6,3.6-1.2L329,70.8z M333.4,62.4
				c0-0.9-0.7-1.6-1.8-1.6c-1,0-1.8,0.6-1.8,1.6c0,0.8,0.4,1.4,1.3,2.8C332.2,64.5,333.4,63.6,333.4,62.4z"/>
			<path fill="#03303A" d="M351.6,57.6c3.3,0,5.8,2.8,5.8,8.6c0,2.4-0.6,4.8-1.7,6.4c-0.4,0.5-1.6,2-4.3,2c-4.5,0-5.8-4.7-5.8-8.5
				c0-1.9,0.3-4.1,1.4-5.9c0.7-1.2,1.8-2.2,3.6-2.5C350.9,57.7,351.2,57.6,351.6,57.6z M350,62c-0.6,1.3-0.6,3.9-0.6,4.4
				c0,2.9,0.5,5.1,2.2,5.1c2,0,2.1-3.7,2.1-5.3c0-1.6-0.1-5.6-2.3-5.4C350.4,60.9,350.1,61.7,350,62z M366.3,56.4l3,1.6l-13.9,26.6
				l-3-1.5L366.3,56.4z M374.3,68.4c1.4,1.9,1.6,4.8,1.6,6.5c0,2.4-0.6,4.8-1.7,6.4c-0.4,0.6-1.6,2-4.2,2c-4.7,0-5.9-4.8-5.9-8.4
				c0-4.5,1.7-8.7,6.1-8.6C372.1,66.3,373.5,67.2,374.3,68.4z M368.6,70.6c-0.6,1.3-0.6,3.9-0.6,4.4c0,2.9,0.5,5.1,2.2,5.1
				c2,0,2.1-3.8,2.1-5.3c0-2.3-0.3-5.6-2.3-5.4C369,69.6,368.7,70.4,368.6,70.6z"/>
			<path fill="#03303A" d="M382,57h3v3.3l-0.6,1.4l1.1-1.1l3.2-1.1l0.9,2.8l-3.2,1l-1.5-0.1l1.4,0.8l2,2.7l-2.4,1.7l-1.9-2.7
				l-0.3-1.6l-0.3,1.6l-2,2.7l-2.4-1.7l2-2.8l1.3-0.7l-1.4,0.3l-3.3-0.9l0.9-2.9l3.1,1l1.2,1l-0.7-1.3V57z"/>
			<path fill="#03303A" d="M393.4,57h5.9v7.5l-1.8,9.6h-2.5l-1.7-9.3V57z M393.4,76.8h5.9v6.3h-5.9V76.8z"/>
		</g>
	</g>
</g>
</svg>
